<mxfile host="app.diagrams.net" modified="2022-11-19T17:25:57.571Z" agent="5.0 (Macintosh; Intel Mac OS X 10_15_7) AppleWebKit/605.1.15 (KHTML, like Gecko) Version/15.6.1 Safari/605.1.15" etag="HcMavDHAmKTPifWGWp9t" version="20.5.0" type="github">
  <diagram id="0uAz99eKMJNXKcXDl2yh" name="Page-1">
    <mxGraphModel dx="830" dy="620" grid="1" gridSize="10" guides="1" tooltips="1" connect="1" arrows="1" fold="1" page="1" pageScale="1" pageWidth="827" pageHeight="1169" math="0" shadow="0">
      <root>
        <mxCell id="0" />
        <mxCell id="1" parent="0" />
        <mxCell id="5NBuqg2_A_mSfcLsjchL-4" style="edgeStyle=orthogonalEdgeStyle;rounded=0;orthogonalLoop=1;jettySize=auto;html=1;" edge="1" parent="1" source="5NBuqg2_A_mSfcLsjchL-1" target="5NBuqg2_A_mSfcLsjchL-3">
          <mxGeometry relative="1" as="geometry">
            <Array as="points">
              <mxPoint x="390" y="150" />
              <mxPoint x="250" y="150" />
            </Array>
          </mxGeometry>
        </mxCell>
        <mxCell id="5NBuqg2_A_mSfcLsjchL-10" style="edgeStyle=orthogonalEdgeStyle;rounded=0;orthogonalLoop=1;jettySize=auto;html=1;" edge="1" parent="1" source="5NBuqg2_A_mSfcLsjchL-1" target="5NBuqg2_A_mSfcLsjchL-9">
          <mxGeometry relative="1" as="geometry" />
        </mxCell>
        <mxCell id="5NBuqg2_A_mSfcLsjchL-12" style="edgeStyle=orthogonalEdgeStyle;rounded=0;orthogonalLoop=1;jettySize=auto;html=1;entryX=0.5;entryY=0;entryDx=0;entryDy=0;" edge="1" parent="1" source="5NBuqg2_A_mSfcLsjchL-1" target="5NBuqg2_A_mSfcLsjchL-11">
          <mxGeometry relative="1" as="geometry">
            <Array as="points">
              <mxPoint x="390" y="150" />
              <mxPoint x="600" y="150" />
            </Array>
          </mxGeometry>
        </mxCell>
        <mxCell id="5NBuqg2_A_mSfcLsjchL-1" value="URL" style="rounded=0;whiteSpace=wrap;html=1;" vertex="1" parent="1">
          <mxGeometry x="330" y="40" width="120" height="90" as="geometry" />
        </mxCell>
        <mxCell id="5NBuqg2_A_mSfcLsjchL-2" value="1. Homepage" style="rounded=0;whiteSpace=wrap;html=1;" vertex="1" parent="1">
          <mxGeometry x="330" y="40" width="120" height="30" as="geometry" />
        </mxCell>
        <mxCell id="5NBuqg2_A_mSfcLsjchL-6" style="edgeStyle=orthogonalEdgeStyle;rounded=0;orthogonalLoop=1;jettySize=auto;html=1;entryX=0.5;entryY=0;entryDx=0;entryDy=0;" edge="1" parent="1" source="5NBuqg2_A_mSfcLsjchL-3" target="5NBuqg2_A_mSfcLsjchL-5">
          <mxGeometry relative="1" as="geometry" />
        </mxCell>
        <mxCell id="5NBuqg2_A_mSfcLsjchL-3" value="2. category" style="rounded=0;whiteSpace=wrap;html=1;" vertex="1" parent="1">
          <mxGeometry x="190" y="180" width="120" height="40" as="geometry" />
        </mxCell>
        <mxCell id="5NBuqg2_A_mSfcLsjchL-25" style="edgeStyle=orthogonalEdgeStyle;rounded=0;orthogonalLoop=1;jettySize=auto;html=1;" edge="1" parent="1" source="5NBuqg2_A_mSfcLsjchL-5" target="5NBuqg2_A_mSfcLsjchL-24">
          <mxGeometry relative="1" as="geometry" />
        </mxCell>
        <mxCell id="5NBuqg2_A_mSfcLsjchL-5" value="2.1. Node" style="rounded=0;whiteSpace=wrap;html=1;" vertex="1" parent="1">
          <mxGeometry x="190" y="250" width="120" height="40" as="geometry" />
        </mxCell>
        <mxCell id="5NBuqg2_A_mSfcLsjchL-7" value="Group of information" style="text;html=1;strokeColor=none;fillColor=none;align=center;verticalAlign=middle;whiteSpace=wrap;rounded=0;" vertex="1" parent="1">
          <mxGeometry x="120" y="185" width="60" height="30" as="geometry" />
        </mxCell>
        <mxCell id="5NBuqg2_A_mSfcLsjchL-8" value="Single content piece" style="text;html=1;strokeColor=none;fillColor=none;align=center;verticalAlign=middle;whiteSpace=wrap;rounded=0;" vertex="1" parent="1">
          <mxGeometry x="120" y="270" width="60" height="30" as="geometry" />
        </mxCell>
        <mxCell id="5NBuqg2_A_mSfcLsjchL-14" style="edgeStyle=orthogonalEdgeStyle;rounded=0;orthogonalLoop=1;jettySize=auto;html=1;" edge="1" parent="1" source="5NBuqg2_A_mSfcLsjchL-9" target="5NBuqg2_A_mSfcLsjchL-13">
          <mxGeometry relative="1" as="geometry" />
        </mxCell>
        <mxCell id="5NBuqg2_A_mSfcLsjchL-9" value="3. category" style="rounded=0;whiteSpace=wrap;html=1;" vertex="1" parent="1">
          <mxGeometry x="330" y="180" width="120" height="40" as="geometry" />
        </mxCell>
        <mxCell id="5NBuqg2_A_mSfcLsjchL-21" style="edgeStyle=orthogonalEdgeStyle;rounded=0;orthogonalLoop=1;jettySize=auto;html=1;" edge="1" parent="1" source="5NBuqg2_A_mSfcLsjchL-11" target="5NBuqg2_A_mSfcLsjchL-20">
          <mxGeometry relative="1" as="geometry">
            <Array as="points">
              <mxPoint x="600" y="240" />
              <mxPoint x="540" y="240" />
            </Array>
          </mxGeometry>
        </mxCell>
        <mxCell id="5NBuqg2_A_mSfcLsjchL-23" style="edgeStyle=orthogonalEdgeStyle;rounded=0;orthogonalLoop=1;jettySize=auto;html=1;" edge="1" parent="1" source="5NBuqg2_A_mSfcLsjchL-11" target="5NBuqg2_A_mSfcLsjchL-22">
          <mxGeometry relative="1" as="geometry">
            <Array as="points">
              <mxPoint x="600" y="240" />
              <mxPoint x="660" y="240" />
            </Array>
          </mxGeometry>
        </mxCell>
        <mxCell id="5NBuqg2_A_mSfcLsjchL-11" value="4.category" style="rounded=0;whiteSpace=wrap;html=1;" vertex="1" parent="1">
          <mxGeometry x="540" y="175" width="120" height="40" as="geometry" />
        </mxCell>
        <mxCell id="5NBuqg2_A_mSfcLsjchL-19" style="edgeStyle=orthogonalEdgeStyle;rounded=0;orthogonalLoop=1;jettySize=auto;html=1;" edge="1" parent="1" source="5NBuqg2_A_mSfcLsjchL-13" target="5NBuqg2_A_mSfcLsjchL-18">
          <mxGeometry relative="1" as="geometry" />
        </mxCell>
        <mxCell id="5NBuqg2_A_mSfcLsjchL-13" value="3. 1. Node" style="rounded=0;whiteSpace=wrap;html=1;" vertex="1" parent="1">
          <mxGeometry x="330" y="250" width="120" height="40" as="geometry" />
        </mxCell>
        <mxCell id="5NBuqg2_A_mSfcLsjchL-17" value="" style="edgeStyle=orthogonalEdgeStyle;rounded=0;orthogonalLoop=1;jettySize=auto;html=1;endArrow=none;" edge="1" parent="1" source="5NBuqg2_A_mSfcLsjchL-9" target="5NBuqg2_A_mSfcLsjchL-13">
          <mxGeometry relative="1" as="geometry">
            <mxPoint x="390" y="220" as="sourcePoint" />
            <mxPoint x="390" y="300" as="targetPoint" />
          </mxGeometry>
        </mxCell>
        <mxCell id="5NBuqg2_A_mSfcLsjchL-18" value="URL" style="rounded=0;whiteSpace=wrap;html=1;" vertex="1" parent="1">
          <mxGeometry x="330" y="290" width="120" height="40" as="geometry" />
        </mxCell>
        <mxCell id="5NBuqg2_A_mSfcLsjchL-20" value="4.category" style="rounded=0;whiteSpace=wrap;html=1;" vertex="1" parent="1">
          <mxGeometry x="480" y="250" width="120" height="40" as="geometry" />
        </mxCell>
        <mxCell id="5NBuqg2_A_mSfcLsjchL-22" value="4.category" style="rounded=0;whiteSpace=wrap;html=1;" vertex="1" parent="1">
          <mxGeometry x="600" y="250" width="120" height="40" as="geometry" />
        </mxCell>
        <mxCell id="5NBuqg2_A_mSfcLsjchL-24" value="URL" style="rounded=0;whiteSpace=wrap;html=1;" vertex="1" parent="1">
          <mxGeometry x="190" y="290" width="120" height="40" as="geometry" />
        </mxCell>
      </root>
    </mxGraphModel>
  </diagram>
</mxfile>
